<svg xmlns="http://www.w3.org/2000/svg" xmlns:xlink="http://www.w3.org/1999/xlink" viewBox="0 0 214.778 96">
  <defs>
    <style>
      .cls-1 {
        fill: url(#linear-gradient);
      }

      .cls-2 {
        fill: url(#linear-gradient-2);
      }

      .cls-3 {
        fill: url(#linear-gradient-3);
      }

      .cls-4 {
        fill: #484b4e;
      }
    </style>
    <linearGradient id="linear-gradient" x1="0.122" y1="0.803" x2="1.358" y2="-0.484" gradientUnits="objectBoundingBox">
      <stop offset="0" stop-color="#2864fa"/>
      <stop offset="1" stop-color="#00eaa6"/>
    </linearGradient>
    <linearGradient id="linear-gradient-2" x1="-1.495" y1="1.583" x2="2.256" y2="-0.757" xlink:href="#linear-gradient"/>
    <linearGradient id="linear-gradient-3" x1="-0.143" y1="1.777" x2="0.907" y2="-0.129" xlink:href="#linear-gradient"/>
  </defs>
  <g id="Group_447" data-name="Group 447" transform="translate(0 0.007)">
    <g id="Group_1" data-name="Group 1" transform="translate(131.779 -0.007)">
      <path id="Path_1" data-name="Path 1" class="cls-1" d="M705.334,181.74,645.39,170.917a1.359,1.359,0,0,0-1.573,1.573l8.809,47.569a1.351,1.351,0,0,0,1.007,1.07l40.249,9.879A1.339,1.339,0,0,0,695.518,230L706.4,183.376A1.35,1.35,0,0,0,705.334,181.74Z" transform="translate(-640.545 -135.05)"/>
      <path id="Path_2" data-name="Path 2" class="cls-2" d="M948.987,239.225l-10.256-4.342a1.349,1.349,0,0,0-1.846.944l-6.733,28.86a1.352,1.352,0,0,0,2.433,1.07l16.989-24.54A1.349,1.349,0,0,0,948.987,239.225Z" transform="translate(-866.811 -185.53)"/>
      <path id="Path_3" data-name="Path 3" class="cls-3" d="M694.241,42.257a1.331,1.331,0,0,0,1.552-1.028l9.228-39.578A1.354,1.354,0,0,0,703.364.036l-74.038,18.5a1.356,1.356,0,0,0-1.007,1.552L629.976,29a2.451,2.451,0,0,0,2.013,1.993Z" transform="translate(-628.298 0.007)"/>
    </g>
    <g id="Group_2" data-name="Group 2" transform="translate(0 16.522)">
      <path id="Path_4" data-name="Path 4" class="cls-4" d="M165.143,94.776a11.733,11.733,0,0,1,3.587,2.265L166.422,99.7a9.346,9.346,0,0,0-2.643-1.594,8,8,0,0,0-2.852-.5,4.583,4.583,0,0,0-2.748.755,2.5,2.5,0,0,0-1.049,2.139,2.683,2.683,0,0,0,.4,1.531A3.785,3.785,0,0,0,159,103.166a20.507,20.507,0,0,0,3.167,1.175,14.209,14.209,0,0,1,5.453,2.831,6.378,6.378,0,0,1,1.825,4.908,7.02,7.02,0,0,1-1.112,3.9,7.637,7.637,0,0,1-3.209,2.664,12.074,12.074,0,0,1-4.971.965,13.208,13.208,0,0,1-5.034-.9,11.65,11.65,0,0,1-3.817-2.475l2.412-2.706a11.314,11.314,0,0,0,2.936,1.825,8.8,8.8,0,0,0,3.377.629,5.186,5.186,0,0,0,3.272-.965,3.218,3.218,0,0,0,1.237-2.706,3.421,3.421,0,0,0-.419-1.762,3.752,3.752,0,0,0-1.447-1.237,18.515,18.515,0,0,0-2.978-1.154,13.9,13.9,0,0,1-5.642-2.915,6.518,6.518,0,0,1-.671-8.012,6.955,6.955,0,0,1,2.957-2.37,10.451,10.451,0,0,1,4.321-.86A13.111,13.111,0,0,1,165.143,94.776Z" transform="translate(-119.566 -90.812)"/>
      <path id="Path_5" data-name="Path 5" class="cls-4" d="M257.451,85.9v26.8H252.9V86.382Zm11.242,8.012-6.25,8.264,6.859,10.508h-5.223l-6.46-10.256,6.292-8.515Z" transform="translate(-199.857 -84.411)"/>
      <path id="Path_6" data-name="Path 6" class="cls-4" d="M345.308,79.6a2.705,2.705,0,0,1,.8,1.972,2.658,2.658,0,0,1-.8,1.951,2.8,2.8,0,0,1-2.076.776,2.735,2.735,0,0,1-2.034-.776,2.658,2.658,0,0,1-.8-1.951,2.705,2.705,0,0,1,.8-1.972,2.783,2.783,0,0,1,2.034-.8A2.734,2.734,0,0,1,345.308,79.6Zm.231,8.7v18.772h-4.551V88.3Z" transform="translate(-269.004 -78.8)"/>
      <path id="Path_7" data-name="Path 7" class="cls-4" d="M392.744,124.1l-6.1,18.772h-5.432L375,124.1h4.929l4.006,15.122,4.111-15.122Z" transform="translate(-296.347 -114.599)"/>
      <path id="Path_8" data-name="Path 8" class="cls-4" d="M479.306,133H467.519a5.892,5.892,0,0,0,1.426,3.9,4.392,4.392,0,0,0,3.188,1.175,6.742,6.742,0,0,0,2.349-.4,11.3,11.3,0,0,0,2.349-1.258l1.888,2.6a10.815,10.815,0,0,1-6.963,2.517,8.412,8.412,0,0,1-6.628-2.622,10.431,10.431,0,0,1-2.328-7.173,13.082,13.082,0,0,1,.986-5.16A8.178,8.178,0,0,1,466.659,123a8.55,8.55,0,0,1,10.571,1.2,10.312,10.312,0,0,1,2.16,6.984C479.411,131.39,479.369,132,479.306,133Zm-4.4-3.167c0-3.293-1.216-4.929-3.65-4.929a3.057,3.057,0,0,0-2.6,1.216,7.338,7.338,0,0,0-1.112,3.922h7.383v-.21Z" transform="translate(-365.732 -112.702)"/>
      <path id="Path_9" data-name="Path 9" class="cls-4" d="M14.619,257.4a11.638,11.638,0,0,1,3.272,1.951l-2.37,2.79a7.205,7.205,0,0,0-4.551-1.741,5.2,5.2,0,0,0-4.384,2.2c-1.091,1.468-1.657,3.775-1.657,6.921q0,4.625,1.636,6.859a5.192,5.192,0,0,0,4.4,2.244,6.132,6.132,0,0,0,2.6-.524,13.524,13.524,0,0,0,2.412-1.468l2.2,2.769a10.306,10.306,0,0,1-7.383,3,10.687,10.687,0,0,1-5.642-1.489,9.769,9.769,0,0,1-3.8-4.384A16.559,16.559,0,0,1,0,269.526a15.426,15.426,0,0,1,1.405-6.88,10.17,10.17,0,0,1,3.838-4.363,10.3,10.3,0,0,1,5.474-1.489A10.591,10.591,0,0,1,14.619,257.4Z" transform="translate(0 -219.461)"/>
      <path id="Path_10" data-name="Path 10" class="cls-4" d="M108.074,286.743A10.586,10.586,0,0,1,110.4,294a12,12,0,0,1-1.07,5.2,8.051,8.051,0,0,1-3.062,3.5,8.791,8.791,0,0,1-4.719,1.238,8.26,8.26,0,0,1-6.5-2.643A10.671,10.671,0,0,1,92.7,294a11.844,11.844,0,0,1,1.07-5.181,8.252,8.252,0,0,1,3.062-3.482,8.917,8.917,0,0,1,4.74-1.237A8.2,8.2,0,0,1,108.074,286.743ZM97.5,294a9.323,9.323,0,0,0,1.007,4.908,3.712,3.712,0,0,0,6.082-.021,9.425,9.425,0,0,0,1.007-4.908,9.289,9.289,0,0,0-1.007-4.887,3.336,3.336,0,0,0-3-1.573Q97.5,287.55,97.5,294Z" transform="translate(-73.257 -241.04)"/>
      <path id="Path_11" data-name="Path 11" class="cls-4" d="M191.016,274.471a4.9,4.9,0,0,1-1.216-3.566v-22l4.551-.5v22.358q0,1.322,1.07,1.321a3.789,3.789,0,0,0,1.07-.168l.965,3.188a7.352,7.352,0,0,1-3.02.629A4.544,4.544,0,0,1,191.016,274.471Z" transform="translate(-149.991 -212.828)"/>
      <path id="Path_12" data-name="Path 12" class="cls-4" d="M240.917,274.471a4.9,4.9,0,0,1-1.217-3.566v-22l4.551-.5v22.358q0,1.322,1.07,1.321a3.789,3.789,0,0,0,1.07-.168l.965,3.188a7.351,7.351,0,0,1-3.02.629A4.544,4.544,0,0,1,240.917,274.471Z" transform="translate(-189.425 -212.828)"/>
      <path id="Path_13" data-name="Path 13" class="cls-4" d="M300.407,295.5H288.619a5.891,5.891,0,0,0,1.426,3.9,4.392,4.392,0,0,0,3.188,1.175,6.741,6.741,0,0,0,2.349-.4,11.309,11.309,0,0,0,2.349-1.258l1.888,2.6a10.816,10.816,0,0,1-6.963,2.517,8.412,8.412,0,0,1-6.628-2.622,10.431,10.431,0,0,1-2.328-7.173,13.081,13.081,0,0,1,.986-5.16,8.178,8.178,0,0,1,2.873-3.586,8.55,8.55,0,0,1,10.571,1.2,10.312,10.312,0,0,1,2.16,6.984C300.511,293.89,300.47,294.519,300.407,295.5Zm-4.4-3.146c0-3.293-1.216-4.929-3.649-4.929a3.057,3.057,0,0,0-2.6,1.216,7.158,7.158,0,0,0-1.112,3.922h7.383v-.21Z" transform="translate(-224.355 -241.119)"/>
      <path id="Path_14" data-name="Path 14" class="cls-4" d="M388.92,277.808a17.655,17.655,0,0,1-5.432.629,6.511,6.511,0,0,1,2.58,1.93,4.919,4.919,0,0,1,.839,2.894,5.9,5.9,0,0,1-.9,3.272,6.282,6.282,0,0,1-2.622,2.244,9.327,9.327,0,0,1-4.027.818,7.277,7.277,0,0,1-2.244-.294,1.6,1.6,0,0,0-.776,1.384q0,1.321,2.265,1.321h2.874a9.148,9.148,0,0,1,3.608.671,5.457,5.457,0,0,1,2.391,1.909,4.741,4.741,0,0,1,.86,2.748,5,5,0,0,1-2.412,4.426c-1.615,1.049-3.922,1.573-6.963,1.573a15.955,15.955,0,0,1-5.139-.671,4.844,4.844,0,0,1-2.643-1.951,6.2,6.2,0,0,1-.776-3.272h4.09a2.738,2.738,0,0,0,.378,1.552,2.31,2.31,0,0,0,1.342.86,10.683,10.683,0,0,0,2.831.294,7.611,7.611,0,0,0,3.65-.629,2.032,2.032,0,0,0,1.07-1.846,1.929,1.929,0,0,0-.818-1.657,4,4,0,0,0-2.37-.587h-2.832a6.485,6.485,0,0,1-4.006-1.028,3.138,3.138,0,0,1-1.342-2.6,3.4,3.4,0,0,1,.587-1.909,4.986,4.986,0,0,1,1.615-1.552,6.138,6.138,0,0,1-2.5-2.181,5.889,5.889,0,0,1-.8-3.1,6.428,6.428,0,0,1,.986-3.545,6.749,6.749,0,0,1,2.748-2.37,9.159,9.159,0,0,1,4.027-.839,17.21,17.21,0,0,0,4.8-.44,20.076,20.076,0,0,0,3.964-1.657Zm-12.228,2.538a3.747,3.747,0,0,0-.86,2.6,3.964,3.964,0,0,0,.881,2.706,3.573,3.573,0,0,0,4.929,0,4.067,4.067,0,0,0,.86-2.748c0-2.37-1.133-3.545-3.4-3.545A3.083,3.083,0,0,0,376.692,280.345Z" transform="translate(-292.712 -233.217)"/>
      <path id="Path_15" data-name="Path 15" class="cls-4" d="M479.306,295.5H467.519a5.892,5.892,0,0,0,1.426,3.9,4.392,4.392,0,0,0,3.188,1.175,6.74,6.74,0,0,0,2.349-.4,11.3,11.3,0,0,0,2.349-1.258l1.888,2.6a10.815,10.815,0,0,1-6.963,2.517,8.412,8.412,0,0,1-6.628-2.622,10.431,10.431,0,0,1-2.328-7.173,13.082,13.082,0,0,1,.986-5.16,8.178,8.178,0,0,1,2.874-3.586,8.55,8.55,0,0,1,10.571,1.2,10.312,10.312,0,0,1,2.16,6.984C479.411,293.89,479.369,294.519,479.306,295.5Zm-4.4-3.146c0-3.293-1.216-4.929-3.65-4.929a3.057,3.057,0,0,0-2.6,1.216,7.157,7.157,0,0,0-1.112,3.922h7.383v-.21Z" transform="translate(-365.732 -241.119)"/>
    </g>
  </g>
</svg>
